# xmcd
#
# Track frame offsets:
# 150
# 54937
# 82612
# 105862
# 133275
#
# Disc length: 2108 seconds
#
#
# Revision: 2
# Processed by: cddbd v1.5.1PL2 Copyright (c) Steve Scherf et al.
# Submitted via: FreeRIP 2.60 
#
DISCID=2e083a05
DTITLE=Rollins, Sonny - Tenor Madness
DYEAR=1956
DGENRE=Jazz - Hard Bop
TTITLE0=Tenor Madness
TTITLE1=When Your Lover Has Gone
TTITLE2=Paul's Pal
TTITLE3=My Reverie
TTITLE4=The Most Beautiful Girl In The World
EXTD=
EXTT0=
EXTT1=
EXTT2=
EXTT3=
EXTT4=
PLAYORDER=
